<svg xmlns="http://www.w3.org/2000/svg" viewBox="0 0 160 80" width="160" height="80">
	<style>
		tspan { white-space:pre }
		.shp0 { opacity: 0;fill: #ffffff } 
		.shp1 { fill: #1a1818 } 
		.shp2 { fill: #ffffff } 
	</style>
	<g id="telecash">
		<path id="Rectangle_645" class="shp0" d="M0 0L160 0L160 80L0 80L0 0Z" />
		<g id="Group_846">
			<path id="Path_592" class="shp1" d="M90.29 22.02C90.26 21.77 90.2 21.36 90.11 20.8C90.08 20.65 90.05 20.49 90.01 20.34C89.96 20.2 89.92 20.05 89.86 19.9C89.81 19.76 89.75 19.61 89.69 19.47C89.62 19.33 89.55 19.19 89.47 19.06C89.38 18.91 89.29 18.76 89.18 18.61C89.08 18.47 88.96 18.33 88.84 18.2C88.72 18.07 88.59 17.95 88.46 17.83C88.33 17.72 88.19 17.61 88.04 17.51C87.85 17.38 87.66 17.28 87.45 17.19C87.25 17.1 87.04 17.02 86.82 16.97C86.61 16.91 86.39 16.87 86.17 16.85C85.95 16.82 85.72 16.82 85.5 16.83C85.24 16.82 84.97 16.83 84.71 16.87C84.44 16.9 84.18 16.95 83.92 17.03C83.67 17.1 83.42 17.19 83.17 17.3C82.93 17.41 82.7 17.54 82.47 17.69C82.26 17.84 82.05 18 81.85 18.17C81.66 18.35 81.47 18.54 81.3 18.73C81.12 18.93 80.96 19.14 80.81 19.36C80.66 19.58 80.53 19.8 80.41 20.04C80.26 20.31 80.13 20.59 80.01 20.88C79.89 21.16 79.78 21.45 79.68 21.74C79.58 22.04 79.49 22.33 79.42 22.63C79.34 22.93 79.27 23.23 79.22 23.54C79.15 23.89 79.09 24.24 79.05 24.6C79 24.96 78.95 25.32 78.92 25.67C78.89 26.03 78.87 26.39 78.85 26.75C78.84 27.11 78.83 27.47 78.83 27.83C78.83 28.13 78.83 28.59 78.85 29.2C78.86 29.37 78.86 29.54 78.87 29.72C78.89 29.89 78.9 30.06 78.92 30.23C78.93 30.4 78.96 30.57 78.98 30.74C79 30.91 79.03 31.08 79.06 31.25C79.09 31.44 79.12 31.64 79.16 31.83C79.2 32.02 79.25 32.22 79.29 32.41C79.34 32.6 79.39 32.79 79.44 32.98C79.49 33.17 79.55 33.36 79.61 33.55C79.67 33.75 79.73 33.94 79.81 34.12C79.88 34.31 79.96 34.5 80.05 34.68C80.14 34.86 80.24 35.04 80.34 35.21C80.44 35.39 80.55 35.56 80.67 35.72C80.79 35.88 80.91 36.04 81.04 36.19C81.17 36.34 81.31 36.48 81.46 36.62C81.6 36.76 81.76 36.88 81.92 37C82.08 37.12 82.24 37.24 82.41 37.34C82.61 37.45 82.81 37.55 83.02 37.63C83.23 37.71 83.45 37.78 83.67 37.83C83.89 37.89 84.11 37.93 84.33 37.95C84.56 37.97 84.78 37.98 85.01 37.97C85.17 37.97 85.34 37.96 85.5 37.95C85.66 37.94 85.83 37.92 85.99 37.89C86.15 37.86 86.31 37.83 86.47 37.79C86.62 37.75 86.78 37.7 86.94 37.64C87.09 37.59 87.24 37.53 87.39 37.46C87.54 37.39 87.68 37.31 87.83 37.23C87.97 37.14 88.1 37.05 88.23 36.96C88.36 36.86 88.49 36.75 88.61 36.64C88.74 36.52 88.86 36.39 88.98 36.26C89.09 36.12 89.2 35.98 89.31 35.84C89.41 35.69 89.5 35.54 89.59 35.38C89.67 35.23 89.75 35.07 89.82 34.9C89.9 34.7 89.98 34.5 90.04 34.29C90.1 34.08 90.15 33.87 90.2 33.66C90.24 33.45 90.27 33.23 90.29 33.02C90.32 32.8 90.33 32.58 90.33 32.37L97 32.37C96.97 32.8 96.93 33.29 96.88 33.84C96.85 34.16 96.8 34.47 96.73 34.78C96.67 35.09 96.59 35.4 96.49 35.7C96.4 36.01 96.29 36.31 96.17 36.6C96.04 36.89 95.9 37.18 95.75 37.46C95.66 37.63 95.56 37.8 95.45 37.96C95.35 38.13 95.23 38.29 95.12 38.44C95 38.6 94.87 38.75 94.74 38.9C94.61 39.04 94.48 39.18 94.34 39.32C94.19 39.48 94.03 39.64 93.87 39.79C93.71 39.94 93.54 40.08 93.36 40.22C93.19 40.36 93.01 40.49 92.83 40.62C92.65 40.74 92.47 40.86 92.28 40.98C92.1 41.08 91.92 41.18 91.74 41.27C91.56 41.37 91.38 41.45 91.2 41.54C91.01 41.62 90.83 41.7 90.64 41.77C90.45 41.85 90.26 41.92 90.07 41.98C89.88 42.04 89.7 42.1 89.52 42.15C89.33 42.2 89.15 42.25 88.96 42.29C88.78 42.33 88.59 42.37 88.4 42.4C88.21 42.44 88.03 42.47 87.84 42.49C87.66 42.52 87.48 42.54 87.31 42.55C87.13 42.57 86.95 42.59 86.77 42.6C86.6 42.61 86.42 42.62 86.24 42.62C86.06 42.63 85.88 42.63 85.71 42.63C85.16 42.65 84.61 42.64 84.06 42.59C83.51 42.55 82.97 42.47 82.43 42.36C81.89 42.25 81.36 42.11 80.84 41.94C80.31 41.77 79.8 41.57 79.3 41.35C78.89 41.15 78.5 40.93 78.11 40.69C77.73 40.45 77.36 40.19 77.01 39.9C76.66 39.62 76.33 39.31 76.01 38.98C75.7 38.66 75.4 38.32 75.13 37.96C74.86 37.6 74.62 37.23 74.39 36.86C74.16 36.48 73.95 36.09 73.76 35.69C73.57 35.29 73.41 34.88 73.26 34.46C73.11 34.04 72.98 33.62 72.88 33.19C72.76 32.75 72.66 32.31 72.58 31.86C72.5 31.41 72.42 30.96 72.37 30.51C72.31 30.06 72.27 29.61 72.24 29.15C72.21 28.7 72.2 28.25 72.2 27.79C72.19 27.25 72.21 26.71 72.24 26.17C72.28 25.64 72.34 25.1 72.42 24.57C72.5 24.03 72.6 23.5 72.72 22.98C72.84 22.45 72.98 21.93 73.15 21.42C73.29 20.97 73.45 20.53 73.64 20.1C73.82 19.66 74.03 19.24 74.25 18.83C74.48 18.42 74.73 18.02 74.99 17.63C75.26 17.24 75.54 16.87 75.85 16.51C76.14 16.17 76.45 15.85 76.78 15.54C77.1 15.24 77.45 14.95 77.81 14.68C78.17 14.42 78.54 14.17 78.93 13.95C79.32 13.72 79.72 13.52 80.13 13.34C80.57 13.15 81.02 12.98 81.48 12.83C81.94 12.69 82.41 12.57 82.88 12.48C83.35 12.38 83.83 12.31 84.31 12.27C84.79 12.22 85.27 12.21 85.75 12.21C86.13 12.21 86.51 12.22 86.88 12.25C87.26 12.28 87.63 12.32 88 12.38C88.38 12.44 88.75 12.52 89.11 12.61C89.48 12.7 89.84 12.81 90.19 12.93C90.51 13.04 90.83 13.16 91.13 13.3C91.44 13.44 91.74 13.59 92.03 13.76C92.32 13.93 92.61 14.11 92.88 14.31C93.15 14.5 93.42 14.71 93.67 14.93C93.91 15.15 94.14 15.37 94.36 15.61C94.58 15.85 94.78 16.1 94.97 16.36C95.16 16.62 95.34 16.89 95.5 17.16C95.66 17.44 95.81 17.73 95.94 18.02C96.08 18.34 96.2 18.66 96.31 18.99C96.41 19.31 96.5 19.65 96.57 19.98C96.63 20.32 96.69 20.66 96.72 21C96.75 21.34 96.76 21.69 96.76 22.03L90.29 22.02Z" />
			<path id="Path_593" fill-rule="evenodd" class="shp1" d="M111.53 41.95C111.51 41.81 111.49 41.67 111.47 41.54C111.45 41.4 111.43 41.26 111.41 41.12C111.4 40.98 111.38 40.85 111.37 40.71C111.36 40.57 111.35 40.43 111.35 40.29C111.33 39.81 111.33 39.42 111.33 39.13C111.21 39.31 111.08 39.48 110.94 39.65C110.81 39.82 110.67 39.99 110.52 40.15C110.37 40.31 110.21 40.46 110.05 40.6C109.89 40.75 109.72 40.89 109.55 41.02C109.42 41.12 109.28 41.22 109.14 41.31C109 41.4 108.86 41.49 108.71 41.57C108.57 41.66 108.42 41.73 108.27 41.81C108.12 41.88 107.97 41.94 107.81 42.01C107.69 42.05 107.56 42.1 107.44 42.13C107.31 42.17 107.18 42.21 107.05 42.24C106.93 42.27 106.8 42.29 106.67 42.31C106.54 42.33 106.4 42.35 106.27 42.36C105.8 42.4 105.42 42.43 105.15 42.43C104.86 42.44 104.57 42.44 104.28 42.42C103.99 42.41 103.71 42.38 103.42 42.34C103.14 42.29 102.85 42.23 102.57 42.16C102.29 42.08 102.02 42 101.75 41.89C101.59 41.83 101.43 41.75 101.28 41.67C101.12 41.59 100.97 41.5 100.83 41.41C100.68 41.32 100.53 41.22 100.39 41.11C100.25 41.01 100.12 40.9 99.99 40.79C99.83 40.64 99.69 40.48 99.56 40.32C99.42 40.15 99.3 39.98 99.18 39.8C99.07 39.62 98.96 39.44 98.87 39.25C98.77 39.06 98.69 38.86 98.62 38.66C98.55 38.47 98.48 38.27 98.43 38.07C98.38 37.88 98.33 37.68 98.3 37.47C98.26 37.27 98.23 37.07 98.21 36.86C98.2 36.66 98.19 36.45 98.19 36.25C98.19 36.13 98.19 36 98.2 35.88C98.21 35.76 98.22 35.64 98.23 35.52C98.24 35.4 98.25 35.28 98.27 35.16C98.29 35.04 98.31 34.92 98.33 34.8C98.36 34.65 98.39 34.5 98.43 34.35C98.47 34.2 98.52 34.06 98.57 33.91C98.62 33.77 98.68 33.63 98.74 33.49C98.8 33.35 98.87 33.21 98.95 33.08C99.03 32.92 99.13 32.76 99.23 32.61C99.33 32.46 99.43 32.31 99.55 32.16C99.66 32.02 99.77 31.87 99.9 31.74C100.02 31.6 100.14 31.47 100.28 31.34C100.44 31.18 100.62 31.03 100.8 30.89C100.98 30.74 101.16 30.61 101.35 30.48C101.55 30.35 101.74 30.24 101.95 30.13C102.15 30.02 102.36 29.92 102.57 29.83C102.73 29.76 102.9 29.69 103.07 29.63C103.24 29.56 103.41 29.5 103.58 29.45C103.76 29.39 103.93 29.34 104.11 29.3C104.28 29.25 104.46 29.21 104.63 29.17C104.82 29.13 105 29.09 105.19 29.06C105.37 29.02 105.56 28.99 105.74 28.96C105.93 28.93 106.12 28.91 106.3 28.89C106.49 28.86 106.68 28.84 106.86 28.82C107.6 28.76 108.31 28.71 108.99 28.7C109.67 28.69 110.26 28.68 110.75 28.68C110.75 28 110.74 27.47 110.71 27.08C110.71 26.99 110.7 26.89 110.68 26.79C110.67 26.7 110.65 26.6 110.63 26.5C110.61 26.41 110.59 26.31 110.56 26.22C110.53 26.12 110.5 26.03 110.47 25.94C110.44 25.85 110.41 25.77 110.37 25.69C110.33 25.61 110.29 25.53 110.24 25.45C110.19 25.38 110.14 25.3 110.08 25.24C110.02 25.17 109.96 25.1 109.89 25.04C109.84 24.99 109.78 24.94 109.72 24.89C109.66 24.85 109.6 24.8 109.54 24.76C109.47 24.71 109.41 24.67 109.34 24.64C109.28 24.6 109.21 24.56 109.14 24.53C109.08 24.5 109.01 24.47 108.95 24.45C108.89 24.42 108.82 24.4 108.76 24.38C108.69 24.36 108.63 24.34 108.56 24.32C108.49 24.31 108.43 24.29 108.36 24.28C108.31 24.27 108.26 24.27 108.21 24.26C108.16 24.25 108.11 24.25 108.06 24.24C108.02 24.24 107.97 24.23 107.92 24.23C107.87 24.23 107.82 24.22 107.77 24.22C107.66 24.22 107.55 24.23 107.44 24.24C107.33 24.25 107.22 24.27 107.12 24.29C107.01 24.32 106.91 24.35 106.8 24.38C106.7 24.42 106.6 24.46 106.5 24.51C106.31 24.59 106.14 24.7 105.98 24.82C105.82 24.95 105.68 25.1 105.55 25.26C105.43 25.42 105.33 25.6 105.25 25.78C105.17 25.97 105.12 26.17 105.09 26.37C105.08 26.44 105.07 26.51 105.06 26.58C105.05 26.65 105.05 26.72 105.04 26.79C105.04 26.86 105.03 26.93 105.03 27C105.03 27.07 105.03 27.14 105.03 27.21L99.09 27.21C99.09 26.94 99.11 26.6 99.15 26.21C99.16 26.1 99.18 25.99 99.2 25.89C99.22 25.78 99.24 25.67 99.27 25.56C99.29 25.46 99.32 25.35 99.35 25.25C99.39 25.15 99.42 25.04 99.46 24.94C99.5 24.82 99.55 24.7 99.6 24.59C99.65 24.47 99.71 24.35 99.77 24.24C99.82 24.13 99.89 24.02 99.95 23.91C100.02 23.8 100.08 23.69 100.15 23.58C100.24 23.46 100.33 23.34 100.43 23.23C100.52 23.12 100.63 23.01 100.73 22.9C100.84 22.8 100.95 22.7 101.07 22.6C101.18 22.51 101.3 22.42 101.43 22.34C101.66 22.17 101.9 22.02 102.14 21.87C102.39 21.73 102.65 21.6 102.91 21.49C103.17 21.38 103.43 21.28 103.71 21.19C103.98 21.11 104.26 21.04 104.54 20.98C104.79 20.93 105.06 20.88 105.32 20.84C105.58 20.8 105.84 20.77 106.1 20.74C106.37 20.71 106.63 20.69 106.89 20.68C107.16 20.66 107.42 20.66 107.69 20.65C108.12 20.65 108.65 20.68 109.28 20.73C109.45 20.75 109.61 20.77 109.78 20.79C109.94 20.81 110.11 20.84 110.27 20.87C110.44 20.9 110.6 20.94 110.76 20.98C110.92 21.02 111.09 21.06 111.25 21.1C111.42 21.15 111.6 21.21 111.77 21.26C111.94 21.32 112.11 21.38 112.28 21.45C112.45 21.52 112.62 21.59 112.79 21.66C112.95 21.74 113.12 21.82 113.28 21.9C113.45 21.99 113.61 22.08 113.77 22.19C113.93 22.29 114.09 22.4 114.24 22.52C114.39 22.64 114.53 22.76 114.67 22.9C114.8 23.03 114.94 23.17 115.06 23.31C115.15 23.41 115.23 23.52 115.31 23.63C115.39 23.73 115.46 23.85 115.53 23.96C115.6 24.08 115.66 24.19 115.72 24.31C115.77 24.43 115.83 24.56 115.87 24.68C115.92 24.8 115.96 24.92 116 25.04C116.04 25.16 116.08 25.28 116.12 25.4C116.15 25.52 116.19 25.64 116.22 25.77C116.25 25.89 116.28 26.01 116.3 26.14C116.32 26.24 116.35 26.35 116.36 26.45C116.38 26.56 116.4 26.67 116.41 26.78C116.42 26.88 116.44 26.99 116.45 27.1C116.45 27.21 116.46 27.32 116.47 27.42C116.48 27.82 116.49 28.14 116.49 28.39L116.53 36.69C116.53 37.56 116.56 38.43 116.63 39.31C116.65 39.53 116.67 39.75 116.69 39.96C116.72 40.18 116.75 40.4 116.78 40.62C116.81 40.84 116.85 41.06 116.89 41.27C116.93 41.49 116.97 41.71 117.02 41.92L111.53 41.95ZM110.76 32.21C110.53 32.19 110.31 32.17 110.09 32.16C109.86 32.15 109.64 32.15 109.42 32.15C109.19 32.16 108.97 32.17 108.74 32.18C108.52 32.2 108.3 32.22 108.08 32.25C107.89 32.27 107.71 32.3 107.53 32.33C107.35 32.37 107.18 32.41 107 32.46C106.82 32.51 106.65 32.57 106.48 32.63C106.31 32.69 106.14 32.76 105.97 32.84C105.83 32.9 105.7 32.97 105.57 33.05C105.44 33.13 105.32 33.22 105.2 33.31C105.08 33.41 104.97 33.51 104.87 33.62C104.76 33.73 104.67 33.84 104.58 33.97C104.5 34.08 104.43 34.2 104.36 34.33C104.3 34.46 104.25 34.59 104.21 34.72C104.17 34.86 104.13 35 104.11 35.14C104.09 35.28 104.09 35.42 104.09 35.56C104.09 35.65 104.09 35.74 104.1 35.83C104.11 35.91 104.12 36 104.13 36.09C104.15 36.18 104.17 36.26 104.19 36.35C104.21 36.43 104.24 36.52 104.27 36.6C104.3 36.69 104.34 36.77 104.38 36.86C104.42 36.94 104.46 37.02 104.51 37.1C104.55 37.18 104.6 37.25 104.65 37.33C104.71 37.4 104.76 37.48 104.82 37.54C104.89 37.62 104.96 37.69 105.03 37.75C105.1 37.82 105.17 37.88 105.25 37.94C105.33 38 105.41 38.05 105.49 38.1C105.57 38.15 105.66 38.2 105.75 38.24C105.85 38.29 105.95 38.33 106.05 38.36C106.16 38.4 106.27 38.43 106.37 38.45C106.48 38.47 106.59 38.49 106.7 38.5C106.81 38.51 106.92 38.51 107.03 38.51C107.16 38.51 107.29 38.51 107.42 38.49C107.54 38.48 107.67 38.46 107.79 38.43C107.92 38.4 108.04 38.36 108.16 38.32C108.28 38.27 108.4 38.22 108.51 38.16C108.61 38.11 108.71 38.05 108.81 37.99C108.91 37.93 109 37.86 109.1 37.79C109.19 37.72 109.28 37.65 109.36 37.57C109.45 37.49 109.53 37.41 109.61 37.32C109.74 37.17 109.87 37 109.97 36.83C110.08 36.66 110.18 36.48 110.26 36.29C110.35 36.1 110.42 35.91 110.47 35.71C110.53 35.52 110.57 35.32 110.6 35.11C110.62 34.87 110.65 34.63 110.67 34.39C110.69 34.15 110.71 33.91 110.72 33.67C110.74 33.42 110.75 33.18 110.75 32.94C110.76 32.7 110.76 32.46 110.76 32.21" />
			<path id="Path_594" class="shp1" d="M124.47 35.97C124.48 36.05 124.49 36.14 124.5 36.22C124.51 36.31 124.53 36.39 124.55 36.47C124.57 36.56 124.59 36.64 124.61 36.72C124.64 36.81 124.66 36.89 124.69 36.97C124.72 37.05 124.76 37.14 124.8 37.22C124.84 37.3 124.88 37.37 124.93 37.45C124.98 37.53 125.03 37.6 125.09 37.67C125.14 37.74 125.2 37.81 125.27 37.87C125.34 37.94 125.42 38.01 125.5 38.07C125.58 38.13 125.67 38.19 125.75 38.25C125.84 38.3 125.93 38.35 126.03 38.4C126.12 38.44 126.21 38.49 126.31 38.52C126.44 38.57 126.57 38.61 126.7 38.65C126.83 38.68 126.96 38.71 127.1 38.73C127.23 38.76 127.36 38.77 127.5 38.78C127.63 38.79 127.77 38.8 127.91 38.79C128.12 38.81 128.34 38.81 128.55 38.78C128.77 38.76 128.98 38.72 129.19 38.65C129.39 38.59 129.59 38.5 129.78 38.4C129.97 38.3 130.15 38.18 130.32 38.04C130.44 37.93 130.55 37.81 130.64 37.68C130.74 37.55 130.82 37.42 130.89 37.27C130.95 37.12 131.01 36.97 131.04 36.82C131.08 36.66 131.1 36.5 131.1 36.34C131.1 36.22 131.08 36.1 131.06 35.99C131.03 35.87 131 35.76 130.95 35.65C130.9 35.54 130.85 35.44 130.78 35.34C130.71 35.24 130.63 35.15 130.55 35.07C130.38 34.94 130.2 34.82 130.02 34.7C129.84 34.59 129.65 34.49 129.45 34.4C129.26 34.31 129.06 34.23 128.86 34.17C128.65 34.1 128.44 34.05 128.23 34.01L124.47 32.99C124.06 32.88 123.56 32.71 122.95 32.49C122.8 32.44 122.65 32.37 122.49 32.3C122.34 32.24 122.19 32.16 122.05 32.08C121.9 32 121.76 31.91 121.62 31.82C121.48 31.73 121.35 31.63 121.22 31.53C121.07 31.42 120.93 31.3 120.8 31.18C120.67 31.05 120.54 30.92 120.42 30.78C120.3 30.64 120.19 30.49 120.09 30.34C119.99 30.19 119.89 30.04 119.8 29.88C119.7 29.68 119.61 29.47 119.54 29.26C119.46 29.04 119.4 28.83 119.35 28.6C119.3 28.38 119.27 28.16 119.25 27.94C119.23 27.71 119.22 27.49 119.23 27.26C119.23 27.03 119.24 26.79 119.26 26.56C119.29 26.33 119.33 26.09 119.39 25.87C119.44 25.64 119.51 25.42 119.59 25.2C119.68 24.98 119.78 24.76 119.89 24.56C120 24.36 120.12 24.16 120.26 23.97C120.4 23.79 120.54 23.61 120.7 23.44C120.85 23.27 121.02 23.11 121.2 22.96C121.37 22.8 121.56 22.66 121.75 22.53C121.97 22.39 122.19 22.25 122.42 22.12C122.65 21.99 122.88 21.87 123.12 21.77C123.36 21.66 123.61 21.56 123.86 21.47C124.1 21.39 124.36 21.31 124.61 21.25C124.91 21.17 125.21 21.1 125.51 21.04C125.82 20.98 126.12 20.94 126.43 20.9C126.73 20.86 127.04 20.83 127.35 20.82C127.66 20.8 127.96 20.79 128.27 20.79C128.53 20.79 128.78 20.8 129.03 20.81C129.28 20.83 129.54 20.85 129.79 20.88C130.04 20.91 130.29 20.95 130.54 21C130.79 21.05 131.04 21.1 131.28 21.16C131.5 21.22 131.72 21.28 131.93 21.36C132.15 21.43 132.36 21.52 132.56 21.61C132.77 21.7 132.97 21.81 133.17 21.92C133.36 22.03 133.55 22.16 133.74 22.29C133.91 22.41 134.08 22.55 134.23 22.69C134.39 22.83 134.54 22.98 134.68 23.14C134.82 23.3 134.95 23.47 135.08 23.64C135.2 23.82 135.31 24 135.42 24.19C135.53 24.39 135.62 24.61 135.71 24.83C135.79 25.04 135.87 25.27 135.93 25.5C135.99 25.72 136.04 25.95 136.07 26.19C136.1 26.42 136.13 26.65 136.13 26.89L130.61 26.89C130.6 26.77 130.59 26.65 130.57 26.53C130.55 26.41 130.52 26.3 130.49 26.18C130.45 26.07 130.41 25.96 130.36 25.85C130.32 25.74 130.26 25.63 130.2 25.53C130.15 25.45 130.1 25.38 130.04 25.31C129.98 25.24 129.92 25.18 129.86 25.11C129.79 25.05 129.72 24.99 129.65 24.94C129.58 24.89 129.5 24.84 129.42 24.79C129.35 24.75 129.28 24.72 129.2 24.69C129.13 24.65 129.05 24.62 128.98 24.6C128.9 24.57 128.82 24.55 128.74 24.53C128.66 24.51 128.58 24.5 128.5 24.49C128.43 24.48 128.36 24.47 128.29 24.46C128.22 24.45 128.15 24.45 128.08 24.44C128.01 24.44 127.94 24.43 127.87 24.43C127.8 24.43 127.73 24.43 127.66 24.42C127.48 24.42 127.3 24.42 127.13 24.45C126.95 24.47 126.77 24.5 126.6 24.55C126.43 24.59 126.26 24.65 126.09 24.72C125.93 24.8 125.77 24.88 125.62 24.98C125.49 25.06 125.38 25.15 125.27 25.26C125.17 25.36 125.08 25.49 125.01 25.62C124.94 25.75 124.89 25.88 124.85 26.03C124.82 26.17 124.8 26.32 124.8 26.47C124.79 26.61 124.79 26.75 124.82 26.89C124.84 27.03 124.89 27.17 124.95 27.3C125.02 27.42 125.1 27.54 125.2 27.64C125.3 27.74 125.42 27.83 125.54 27.9C125.71 27.98 125.88 28.05 126.05 28.12C126.22 28.19 126.39 28.26 126.57 28.32C126.74 28.38 126.92 28.44 127.09 28.49C127.27 28.54 127.45 28.59 127.63 28.64L131.35 29.66C131.74 29.75 132.13 29.86 132.5 29.99C132.87 30.13 133.24 30.29 133.59 30.48C133.94 30.67 134.28 30.88 134.61 31.11C134.93 31.34 135.24 31.59 135.53 31.87C135.75 32.1 135.95 32.36 136.12 32.64C136.3 32.92 136.44 33.21 136.56 33.51C136.67 33.82 136.76 34.13 136.82 34.45C136.87 34.77 136.89 35.1 136.88 35.43C136.88 35.65 136.87 35.88 136.85 36.1C136.82 36.32 136.79 36.55 136.74 36.77C136.69 36.99 136.63 37.2 136.56 37.42C136.49 37.63 136.4 37.84 136.31 38.04C136.21 38.26 136.09 38.48 135.97 38.68C135.84 38.89 135.7 39.09 135.56 39.28C135.41 39.47 135.25 39.65 135.08 39.83C134.91 40 134.73 40.16 134.55 40.31C134.33 40.49 134.1 40.66 133.86 40.82C133.63 40.98 133.39 41.12 133.14 41.26C132.89 41.4 132.64 41.52 132.38 41.63C132.12 41.74 131.85 41.84 131.58 41.93C131.24 42.04 130.9 42.13 130.55 42.21C130.21 42.29 129.86 42.36 129.51 42.41C129.16 42.46 128.8 42.5 128.45 42.52C128.1 42.54 127.74 42.55 127.39 42.54C127.06 42.55 126.74 42.54 126.42 42.51C126.09 42.49 125.77 42.46 125.45 42.41C125.13 42.37 124.81 42.31 124.5 42.25C124.18 42.18 123.87 42.1 123.56 42.01C123.25 41.92 122.95 41.81 122.65 41.68C122.36 41.54 122.07 41.39 121.8 41.22C121.52 41.05 121.26 40.87 121.01 40.66C120.76 40.46 120.52 40.24 120.3 40.01C120.15 39.86 120.01 39.7 119.88 39.53C119.75 39.36 119.63 39.19 119.52 39C119.42 38.82 119.32 38.63 119.25 38.43C119.17 38.23 119.1 38.03 119.05 37.82C119.02 37.67 118.99 37.51 118.96 37.36C118.94 37.2 118.91 37.05 118.89 36.89C118.86 36.74 118.84 36.58 118.83 36.43C118.81 36.27 118.8 36.11 118.78 35.96L124.47 35.97Z" />
			<path id="Path_595" class="shp1" d="M139.24 12.41L145.26 12.41L145.26 24.08C145.32 24 145.37 23.92 145.43 23.85C145.48 23.77 145.54 23.69 145.6 23.62C145.66 23.55 145.72 23.47 145.78 23.4C145.84 23.33 145.9 23.25 145.96 23.18C146.05 23.09 146.13 22.99 146.22 22.9C146.31 22.81 146.41 22.73 146.5 22.64C146.6 22.56 146.7 22.47 146.8 22.4C146.9 22.32 147 22.24 147.11 22.17C147.24 22.08 147.38 22 147.51 21.92C147.65 21.84 147.79 21.77 147.93 21.7C148.08 21.63 148.22 21.56 148.37 21.5C148.51 21.44 148.66 21.39 148.81 21.34C149.01 21.28 149.21 21.23 149.41 21.18C149.61 21.14 149.82 21.1 150.02 21.07C150.22 21.04 150.43 21.02 150.64 21.01C150.84 21 151.05 20.99 151.25 21C151.43 20.99 151.61 21 151.78 21.01C151.96 21.02 152.14 21.04 152.31 21.06C152.49 21.08 152.66 21.11 152.83 21.15C153.01 21.18 153.18 21.22 153.35 21.27C153.5 21.31 153.64 21.35 153.79 21.4C153.93 21.45 154.07 21.5 154.22 21.55C154.36 21.61 154.5 21.67 154.64 21.73C154.78 21.79 154.92 21.85 155.05 21.92C155.17 21.98 155.29 22.04 155.4 22.11C155.52 22.18 155.63 22.25 155.74 22.32C155.85 22.39 155.96 22.47 156.06 22.55C156.17 22.63 156.27 22.71 156.37 22.8C156.45 22.88 156.54 22.95 156.62 23.03C156.7 23.11 156.78 23.19 156.85 23.27C156.93 23.35 157.01 23.44 157.08 23.52C157.15 23.61 157.22 23.7 157.29 23.78C157.4 23.95 157.51 24.12 157.6 24.29C157.7 24.47 157.79 24.64 157.87 24.83C157.95 25.01 158.02 25.19 158.09 25.38C158.15 25.57 158.21 25.76 158.25 25.95C158.33 26.23 158.39 26.52 158.44 26.8C158.49 27.09 158.53 27.37 158.56 27.66C158.6 27.95 158.62 28.23 158.63 28.52C158.65 28.81 158.65 29.1 158.64 29.39L158.64 41.94L152.59 41.94L152.59 29.56C152.59 29.26 152.57 28.85 152.52 28.35C152.51 28.22 152.5 28.09 152.48 27.96C152.46 27.84 152.43 27.71 152.4 27.59C152.37 27.46 152.33 27.34 152.29 27.22C152.25 27.09 152.21 26.97 152.16 26.86C152.1 26.73 152.04 26.61 151.97 26.49C151.9 26.37 151.83 26.26 151.74 26.15C151.66 26.05 151.57 25.95 151.47 25.85C151.37 25.76 151.26 25.67 151.16 25.59C151.01 25.49 150.86 25.41 150.7 25.33C150.55 25.26 150.38 25.2 150.22 25.16C150.05 25.11 149.88 25.08 149.71 25.06C149.54 25.05 149.36 25.04 149.19 25.05C149.08 25.05 148.97 25.06 148.85 25.07C148.74 25.08 148.63 25.09 148.52 25.11C148.41 25.12 148.3 25.14 148.19 25.17C148.08 25.2 147.97 25.22 147.86 25.26C147.75 25.29 147.63 25.33 147.52 25.38C147.41 25.43 147.31 25.48 147.2 25.54C147.1 25.6 146.99 25.66 146.9 25.73C146.8 25.8 146.7 25.87 146.61 25.95C146.51 26.04 146.42 26.14 146.33 26.24C146.23 26.34 146.15 26.44 146.07 26.55C145.99 26.66 145.92 26.77 145.85 26.89C145.78 27 145.72 27.12 145.66 27.24C145.6 27.41 145.54 27.57 145.49 27.74C145.44 27.9 145.4 28.07 145.37 28.24C145.34 28.41 145.32 28.59 145.31 28.76C145.29 28.93 145.29 29.11 145.3 29.28L145.34 41.95L139.24 41.95L139.24 12.41Z" />
			<path id="Path_596" class="shp2" d="M10.16 17.27L1.36 17.27L1.36 12.36L25.3 12.36L25.3 17.27L16.5 17.27L16.5 41.94L10.16 41.94L10.16 17.27Z" />
			<path id="Path_597" fill-rule="evenodd" class="shp2" d="M25.59 33.14C25.59 33.47 25.61 33.95 25.65 34.57C25.66 34.73 25.67 34.89 25.7 35.05C25.73 35.21 25.76 35.36 25.8 35.52C25.84 35.67 25.88 35.82 25.94 35.97C25.99 36.12 26.05 36.27 26.12 36.42C26.19 36.57 26.27 36.72 26.36 36.86C26.45 37.01 26.54 37.15 26.65 37.28C26.75 37.41 26.87 37.54 26.99 37.66C27.11 37.78 27.23 37.89 27.37 37.99C27.54 38.11 27.73 38.22 27.92 38.31C28.12 38.41 28.32 38.48 28.52 38.54C28.73 38.6 28.94 38.64 29.16 38.66C29.37 38.68 29.59 38.68 29.8 38.67C29.99 38.67 30.17 38.66 30.36 38.64C30.55 38.61 30.73 38.57 30.91 38.53C31.09 38.48 31.27 38.42 31.44 38.35C31.62 38.27 31.79 38.19 31.95 38.1C32.14 37.97 32.32 37.81 32.48 37.65C32.64 37.48 32.78 37.29 32.91 37.1C33.03 36.9 33.14 36.69 33.22 36.48C33.3 36.26 33.36 36.03 33.4 35.8L38.93 35.8C38.9 36.05 38.87 36.35 38.83 36.68C38.81 36.78 38.8 36.87 38.78 36.96C38.76 37.05 38.74 37.14 38.72 37.23C38.7 37.33 38.67 37.42 38.64 37.5C38.62 37.59 38.59 37.68 38.55 37.77C38.51 37.88 38.47 37.98 38.43 38.08C38.38 38.19 38.34 38.29 38.29 38.39C38.24 38.5 38.18 38.6 38.13 38.7C38.08 38.79 38.02 38.89 37.96 38.99C37.89 39.11 37.81 39.22 37.74 39.34C37.66 39.45 37.58 39.56 37.5 39.67C37.41 39.78 37.33 39.89 37.24 39.99C37.15 40.1 37.05 40.2 36.96 40.3C36.75 40.51 36.52 40.7 36.29 40.89C36.05 41.07 35.8 41.23 35.55 41.39C35.29 41.54 35.02 41.67 34.75 41.79C34.48 41.91 34.2 42.01 33.91 42.1C33.57 42.2 33.23 42.29 32.88 42.37C32.54 42.45 32.19 42.52 31.84 42.57C31.49 42.62 31.13 42.66 30.78 42.68C30.42 42.7 30.07 42.71 29.72 42.71C29.28 42.71 28.75 42.68 28.14 42.63C27.98 42.61 27.81 42.6 27.65 42.57C27.49 42.55 27.33 42.52 27.17 42.49C27.01 42.46 26.85 42.43 26.69 42.39C26.53 42.35 26.37 42.31 26.21 42.26C26.04 42.21 25.87 42.16 25.7 42.1C25.53 42.05 25.37 41.98 25.2 41.92C25.03 41.85 24.87 41.79 24.7 41.71C24.54 41.64 24.38 41.56 24.22 41.48C24.05 41.4 23.88 41.31 23.72 41.21C23.56 41.11 23.41 41 23.25 40.89C23.1 40.77 22.95 40.65 22.81 40.53C22.67 40.4 22.54 40.27 22.41 40.13C22.17 39.88 21.94 39.62 21.73 39.35C21.52 39.08 21.33 38.79 21.16 38.5C20.99 38.2 20.83 37.89 20.7 37.58C20.56 37.26 20.44 36.94 20.35 36.61C20.24 36.24 20.15 35.87 20.07 35.5C19.99 35.12 19.92 34.74 19.87 34.36C19.82 33.98 19.78 33.6 19.76 33.22C19.73 32.84 19.72 32.46 19.73 32.07C19.73 31.85 19.73 31.63 19.74 31.42C19.75 31.2 19.76 30.98 19.78 30.76C19.79 30.54 19.81 30.32 19.83 30.11C19.86 29.89 19.88 29.67 19.91 29.45C19.94 29.23 19.98 29.01 20.02 28.78C20.07 28.56 20.12 28.34 20.17 28.12C20.23 27.9 20.29 27.68 20.36 27.46C20.42 27.24 20.49 27.03 20.57 26.82C20.65 26.6 20.74 26.38 20.84 26.17C20.93 25.96 21.04 25.75 21.15 25.54C21.26 25.34 21.38 25.14 21.5 24.94C21.62 24.74 21.75 24.55 21.89 24.36C22.04 24.16 22.2 23.96 22.36 23.78C22.53 23.59 22.7 23.41 22.89 23.23C23.07 23.06 23.26 22.9 23.45 22.74C23.65 22.58 23.85 22.43 24.06 22.3C24.26 22.16 24.47 22.03 24.69 21.9C24.9 21.78 25.12 21.67 25.34 21.56C25.56 21.46 25.79 21.36 26.01 21.27C26.24 21.18 26.48 21.1 26.71 21.03C26.97 20.95 27.23 20.88 27.49 20.83C27.75 20.77 28.01 20.72 28.28 20.68C28.55 20.65 28.81 20.62 29.08 20.6C29.35 20.58 29.62 20.58 29.88 20.58C30.08 20.58 30.27 20.58 30.46 20.6C30.65 20.61 30.84 20.62 31.04 20.64C31.23 20.66 31.42 20.69 31.61 20.72C31.8 20.75 31.99 20.78 32.17 20.82C32.37 20.87 32.57 20.91 32.77 20.97C32.96 21.02 33.16 21.08 33.35 21.15C33.54 21.22 33.73 21.3 33.92 21.38C34.1 21.46 34.29 21.54 34.47 21.64C34.66 21.74 34.85 21.85 35.03 21.96C35.21 22.08 35.39 22.2 35.57 22.33C35.74 22.46 35.91 22.59 36.08 22.73C36.24 22.87 36.4 23.02 36.56 23.17C36.73 23.35 36.89 23.53 37.05 23.71C37.21 23.9 37.36 24.1 37.5 24.3C37.64 24.5 37.77 24.7 37.89 24.91C38.01 25.13 38.13 25.34 38.23 25.56C38.32 25.73 38.4 25.91 38.47 26.08C38.55 26.25 38.62 26.43 38.69 26.61C38.76 26.78 38.82 26.96 38.87 27.15C38.93 27.33 38.98 27.51 39.03 27.69C39.07 27.86 39.11 28.03 39.15 28.2C39.19 28.38 39.22 28.55 39.25 28.72C39.28 28.89 39.31 29.06 39.33 29.24C39.36 29.41 39.38 29.58 39.4 29.76C39.41 29.91 39.43 30.07 39.44 30.22C39.45 30.38 39.47 30.53 39.47 30.69C39.48 30.84 39.49 31 39.49 31.15C39.5 31.31 39.5 31.46 39.5 31.62C39.5 32.19 39.49 32.7 39.46 33.13L25.59 33.14ZM33.28 29.34C33.28 29.1 33.26 28.72 33.22 28.21C33.21 28.08 33.19 27.95 33.17 27.82C33.14 27.69 33.12 27.56 33.08 27.43C33.05 27.3 33.01 27.17 32.96 27.05C32.92 26.92 32.87 26.8 32.81 26.68C32.75 26.55 32.68 26.42 32.6 26.29C32.53 26.17 32.44 26.05 32.35 25.93C32.26 25.81 32.16 25.7 32.06 25.6C31.95 25.5 31.84 25.4 31.73 25.31C31.58 25.2 31.42 25.11 31.26 25.03C31.1 24.95 30.93 24.89 30.75 24.84C30.58 24.79 30.4 24.75 30.22 24.73C30.04 24.71 29.86 24.7 29.68 24.71C29.53 24.71 29.39 24.72 29.24 24.73C29.09 24.75 28.95 24.77 28.81 24.8C28.66 24.84 28.52 24.88 28.38 24.93C28.25 24.98 28.11 25.04 27.98 25.1C27.86 25.17 27.75 25.23 27.64 25.31C27.53 25.38 27.43 25.46 27.33 25.55C27.23 25.64 27.14 25.73 27.05 25.82C26.96 25.92 26.87 26.02 26.79 26.13C26.71 26.24 26.64 26.35 26.57 26.47C26.5 26.59 26.43 26.71 26.37 26.83C26.31 26.95 26.26 27.08 26.21 27.21C26.16 27.33 26.11 27.47 26.08 27.6C26.04 27.74 26 27.88 25.97 28.03C25.93 28.17 25.91 28.31 25.88 28.46C25.86 28.6 25.84 28.75 25.82 28.9C25.81 29.04 25.8 29.19 25.79 29.34L33.28 29.34Z" />
			<path id="Rectangle_639" class="shp2" d="M41.79 12.37L47.85 12.37L47.85 41.94L41.79 41.94L41.79 12.37Z" />
			<path id="Path_598" fill-rule="evenodd" class="shp2" d="M56.44 33.14C56.44 33.47 56.46 33.95 56.51 34.57C56.52 34.73 56.53 34.89 56.56 35.05C56.58 35.21 56.62 35.36 56.66 35.52C56.7 35.67 56.74 35.82 56.8 35.97C56.85 36.12 56.91 36.27 56.98 36.42C57.05 36.57 57.13 36.72 57.22 36.86C57.3 37.01 57.4 37.15 57.51 37.28C57.61 37.41 57.73 37.54 57.85 37.66C57.97 37.78 58.09 37.89 58.23 37.99C58.4 38.11 58.59 38.22 58.78 38.31C58.98 38.41 59.18 38.48 59.38 38.54C59.59 38.6 59.8 38.64 60.02 38.66C60.23 38.68 60.44 38.68 60.66 38.67C60.85 38.67 61.03 38.66 61.22 38.64C61.41 38.61 61.59 38.57 61.77 38.53C61.95 38.48 62.13 38.42 62.3 38.35C62.48 38.27 62.65 38.19 62.81 38.1C63 37.97 63.18 37.81 63.34 37.65C63.5 37.48 63.64 37.29 63.77 37.1C63.89 36.9 64 36.69 64.08 36.48C64.16 36.26 64.22 36.03 64.26 35.8L69.79 35.8C69.76 36.05 69.72 36.35 69.69 36.68C69.67 36.78 69.66 36.87 69.64 36.96C69.62 37.05 69.6 37.14 69.58 37.23C69.56 37.33 69.53 37.42 69.5 37.5C69.48 37.59 69.45 37.68 69.41 37.77C69.37 37.88 69.33 37.98 69.29 38.08C69.24 38.19 69.2 38.29 69.15 38.39C69.1 38.5 69.04 38.6 68.99 38.7C68.94 38.79 68.88 38.89 68.82 38.99C68.75 39.11 68.67 39.22 68.6 39.34C68.52 39.45 68.44 39.56 68.36 39.67C68.27 39.78 68.18 39.89 68.1 39.99C68.01 40.1 67.91 40.2 67.82 40.3C67.61 40.51 67.38 40.7 67.15 40.89C66.91 41.07 66.66 41.24 66.41 41.39C66.15 41.54 65.88 41.67 65.61 41.79C65.34 41.91 65.05 42.01 64.77 42.1C64.43 42.2 64.09 42.29 63.74 42.37C63.4 42.45 63.05 42.52 62.7 42.57C62.34 42.62 61.99 42.66 61.64 42.68C61.28 42.7 60.93 42.71 60.57 42.71C60.14 42.71 59.61 42.68 59 42.63C58.83 42.61 58.67 42.6 58.51 42.57C58.35 42.55 58.19 42.52 58.03 42.49C57.87 42.46 57.71 42.43 57.55 42.39C57.39 42.35 57.23 42.31 57.07 42.26C56.9 42.21 56.73 42.16 56.56 42.1C56.39 42.05 56.22 41.98 56.06 41.92C55.89 41.85 55.73 41.79 55.56 41.71C55.4 41.64 55.24 41.56 55.08 41.48C54.91 41.4 54.74 41.31 54.58 41.21C54.42 41.11 54.26 41 54.11 40.89C53.96 40.77 53.81 40.65 53.67 40.53C53.53 40.4 53.39 40.27 53.26 40.13C53.02 39.88 52.8 39.62 52.59 39.35C52.38 39.08 52.19 38.79 52.02 38.5C51.84 38.2 51.69 37.89 51.55 37.58C51.42 37.26 51.3 36.94 51.21 36.61C51.1 36.24 51.01 35.87 50.93 35.5C50.85 35.12 50.78 34.74 50.73 34.36C50.68 33.98 50.64 33.6 50.61 33.22C50.59 32.84 50.58 32.46 50.59 32.07C50.59 31.85 50.59 31.63 50.6 31.42C50.61 31.2 50.62 30.98 50.63 30.76C50.65 30.54 50.67 30.32 50.69 30.11C50.71 29.89 50.74 29.67 50.77 29.45C50.8 29.23 50.84 29.01 50.88 28.78C50.93 28.56 50.98 28.34 51.03 28.12C51.09 27.9 51.15 27.68 51.21 27.46C51.28 27.24 51.35 27.03 51.43 26.82C51.51 26.6 51.6 26.38 51.7 26.17C51.79 25.96 51.9 25.75 52.01 25.54C52.12 25.34 52.23 25.14 52.36 24.94C52.48 24.74 52.61 24.55 52.75 24.36C52.9 24.16 53.06 23.96 53.22 23.78C53.39 23.59 53.56 23.41 53.74 23.23C53.93 23.06 54.12 22.9 54.31 22.74C54.51 22.58 54.71 22.43 54.92 22.3C55.12 22.16 55.33 22.03 55.54 21.9C55.76 21.78 55.97 21.67 56.2 21.56C56.42 21.46 56.64 21.36 56.87 21.27C57.1 21.18 57.33 21.1 57.57 21.03C57.83 20.95 58.09 20.88 58.35 20.83C58.61 20.77 58.87 20.72 59.14 20.68C59.4 20.65 59.67 20.62 59.94 20.6C60.21 20.58 60.47 20.58 60.74 20.58C60.93 20.58 61.13 20.58 61.32 20.6C61.51 20.61 61.7 20.62 61.89 20.64C62.09 20.66 62.28 20.69 62.47 20.72C62.66 20.75 62.85 20.78 63.03 20.82C63.23 20.87 63.43 20.91 63.63 20.97C63.82 21.02 64.02 21.08 64.21 21.15C64.4 21.22 64.59 21.3 64.77 21.38C64.96 21.46 65.14 21.54 65.32 21.64C65.52 21.74 65.7 21.85 65.89 21.96C66.07 22.08 66.25 22.2 66.43 22.33C66.6 22.46 66.77 22.59 66.94 22.73C67.1 22.87 67.26 23.02 67.41 23.17C67.59 23.35 67.75 23.53 67.91 23.71C68.07 23.9 68.21 24.1 68.36 24.3C68.5 24.5 68.63 24.7 68.75 24.91C68.87 25.13 68.99 25.34 69.09 25.56C69.18 25.73 69.26 25.91 69.33 26.08C69.41 26.25 69.48 26.43 69.55 26.61C69.61 26.79 69.68 26.96 69.73 27.15C69.79 27.33 69.84 27.51 69.89 27.69C69.93 27.86 69.97 28.03 70.01 28.2C70.04 28.38 70.08 28.55 70.11 28.72C70.14 28.89 70.17 29.06 70.19 29.24C70.22 29.41 70.24 29.58 70.25 29.76C70.27 29.91 70.29 30.07 70.3 30.22C70.31 30.38 70.32 30.53 70.33 30.69C70.34 30.84 70.35 31 70.35 31.15C70.36 31.31 70.36 31.46 70.36 31.62C70.36 32.19 70.34 32.7 70.32 33.13L56.44 33.14ZM64.14 29.34C64.14 29.1 64.12 28.72 64.08 28.21C64.07 28.08 64.05 27.95 64.03 27.82C64 27.69 63.98 27.56 63.94 27.43C63.91 27.3 63.87 27.17 63.82 27.05C63.78 26.92 63.73 26.8 63.67 26.68C63.61 26.55 63.54 26.42 63.46 26.29C63.39 26.17 63.3 26.05 63.21 25.93C63.12 25.81 63.02 25.7 62.92 25.6C62.81 25.5 62.7 25.4 62.59 25.31C62.44 25.2 62.28 25.11 62.12 25.03C61.96 24.95 61.79 24.89 61.61 24.84C61.44 24.79 61.26 24.75 61.08 24.73C60.9 24.71 60.72 24.7 60.54 24.71C60.39 24.71 60.25 24.72 60.1 24.73C59.95 24.75 59.81 24.77 59.67 24.8C59.52 24.84 59.38 24.88 59.24 24.93C59.1 24.98 58.97 25.04 58.84 25.1C58.72 25.17 58.61 25.23 58.5 25.31C58.39 25.38 58.29 25.46 58.19 25.55C58.09 25.64 58 25.73 57.91 25.82C57.82 25.92 57.73 26.02 57.65 26.13C57.57 26.24 57.5 26.35 57.43 26.47C57.36 26.59 57.29 26.71 57.23 26.83C57.17 26.95 57.11 27.08 57.07 27.21C57.02 27.33 56.97 27.47 56.94 27.6C56.9 27.74 56.86 27.88 56.83 28.03C56.79 28.17 56.77 28.31 56.74 28.46C56.72 28.6 56.7 28.75 56.68 28.9C56.67 29.04 56.66 29.19 56.65 29.34L64.14 29.34Z" />
			<path id="Path_599" class="shp1" d="M105.74 52.92C105.68 52.92 105.6 52.91 105.53 52.91C105.45 52.91 105.38 52.91 105.3 52.91C105.27 52.91 105.24 52.91 105.21 52.91C105.18 52.91 105.15 52.91 105.12 52.92C105.09 52.92 105.06 52.93 105.03 52.94C105.01 52.94 104.98 52.95 104.95 52.96C104.93 52.97 104.91 52.98 104.9 52.99C104.88 53 104.87 53.01 104.85 53.02C104.84 53.03 104.82 53.04 104.81 53.05C104.8 53.07 104.78 53.08 104.77 53.1C104.76 53.11 104.75 53.12 104.74 53.14C104.74 53.15 104.73 53.17 104.72 53.19C104.72 53.2 104.71 53.22 104.71 53.23C104.71 53.25 104.7 53.27 104.7 53.28C104.7 53.36 104.7 53.42 104.7 53.49L104.7 54.12L105.63 54.12L105.63 54.67L104.7 54.67L104.7 58.13L103.95 58.13L103.95 54.67L103.16 54.67L103.16 54.12L103.95 54.12L103.95 53.67C103.95 53.53 103.95 53.41 103.96 53.31C103.97 53.21 103.97 53.13 103.99 53.06C103.99 53.04 103.99 53.03 103.99 53.01C104 52.99 104 52.98 104 52.96C104.01 52.95 104.01 52.93 104.02 52.92C104.02 52.9 104.03 52.89 104.04 52.87C104.04 52.86 104.05 52.84 104.06 52.83C104.06 52.82 104.07 52.8 104.08 52.79C104.08 52.78 104.09 52.76 104.1 52.75C104.1 52.74 104.11 52.72 104.12 52.71C104.14 52.68 104.17 52.64 104.2 52.61C104.22 52.58 104.25 52.56 104.28 52.53C104.32 52.5 104.35 52.48 104.38 52.45C104.42 52.43 104.45 52.41 104.49 52.39C104.54 52.37 104.59 52.35 104.64 52.34C104.69 52.32 104.75 52.31 104.8 52.3C104.85 52.29 104.91 52.28 104.96 52.27C105.02 52.27 105.07 52.27 105.12 52.27C105.15 52.27 105.18 52.27 105.21 52.27C105.23 52.27 105.26 52.28 105.29 52.28C105.32 52.28 105.34 52.28 105.37 52.28C105.4 52.29 105.43 52.29 105.45 52.29C105.56 52.31 105.66 52.32 105.74 52.33L105.74 52.92Z" />
			<path id="Path_600" class="shp1" d="M106.24 54.93C106.24 54.8 106.24 54.66 106.23 54.52C106.22 54.39 106.22 54.25 106.2 54.12L106.96 54.12L106.98 54.89C106.99 54.86 107 54.83 107.01 54.8C107.02 54.77 107.03 54.74 107.04 54.71C107.06 54.68 107.07 54.65 107.09 54.62C107.11 54.59 107.12 54.57 107.14 54.54C107.16 54.52 107.18 54.5 107.2 54.48C107.21 54.45 107.23 54.43 107.25 54.41C107.27 54.39 107.3 54.38 107.32 54.36C107.34 54.34 107.36 54.32 107.39 54.31C107.41 54.29 107.43 54.28 107.45 54.27C107.47 54.25 107.5 54.24 107.52 54.23C107.54 54.22 107.57 54.21 107.59 54.2C107.61 54.19 107.64 54.18 107.66 54.17C107.69 54.16 107.71 54.16 107.73 54.15C107.75 54.14 107.78 54.14 107.8 54.13C107.82 54.13 107.84 54.12 107.87 54.12C107.89 54.11 107.91 54.11 107.93 54.11C107.96 54.1 107.98 54.1 108.01 54.1C108.03 54.09 108.06 54.09 108.08 54.09C108.11 54.09 108.13 54.09 108.16 54.08C108.18 54.08 108.21 54.08 108.23 54.08C108.32 54.08 108.39 54.08 108.46 54.09L108.46 54.83C108.44 54.82 108.43 54.82 108.42 54.82C108.41 54.81 108.4 54.81 108.39 54.81C108.37 54.8 108.36 54.8 108.35 54.8C108.34 54.8 108.33 54.8 108.31 54.79C108.31 54.79 108.3 54.79 108.29 54.79C108.28 54.79 108.27 54.79 108.26 54.79C108.26 54.79 108.25 54.79 108.24 54.79C108.23 54.79 108.22 54.79 108.22 54.79L108.1 54.79C108.05 54.79 108 54.79 107.96 54.79C107.91 54.79 107.87 54.8 107.82 54.81C107.77 54.81 107.73 54.82 107.69 54.84C107.64 54.85 107.6 54.86 107.55 54.88C107.52 54.89 107.49 54.91 107.46 54.93C107.43 54.94 107.4 54.96 107.37 54.98C107.34 55 107.32 55.03 107.29 55.05C107.27 55.08 107.25 55.1 107.22 55.13C107.2 55.16 107.19 55.19 107.17 55.22C107.15 55.25 107.14 55.29 107.12 55.32C107.11 55.35 107.09 55.38 107.08 55.42C107.07 55.45 107.06 55.49 107.06 55.52C107.05 55.56 107.04 55.6 107.04 55.64C107.03 55.68 107.02 55.72 107.02 55.76C107.02 55.8 107.01 55.84 107.01 55.88C107.01 55.92 107.01 55.96 107.01 56L107.01 58.13L106.25 58.13L106.24 54.93Z" />
			<path id="Path_601" fill-rule="evenodd" class="shp1" d="M108.82 56.17C108.82 56.1 108.82 56.04 108.83 55.98C108.83 55.92 108.84 55.85 108.84 55.79C108.85 55.73 108.86 55.67 108.87 55.6C108.89 55.54 108.9 55.48 108.92 55.42C108.93 55.36 108.95 55.29 108.97 55.23C108.99 55.17 109.02 55.11 109.05 55.06C109.07 55 109.11 54.94 109.14 54.89C109.17 54.83 109.21 54.78 109.25 54.73C109.29 54.67 109.33 54.62 109.38 54.57C109.43 54.52 109.48 54.48 109.53 54.43C109.58 54.39 109.64 54.35 109.7 54.31C109.75 54.28 109.81 54.24 109.87 54.21C109.95 54.18 110.03 54.15 110.11 54.12C110.19 54.09 110.27 54.07 110.35 54.06C110.44 54.04 110.52 54.03 110.6 54.02C110.69 54.01 110.77 54.01 110.86 54.01C110.94 54.01 111.03 54.01 111.11 54.02C111.19 54.03 111.28 54.04 111.36 54.06C111.44 54.08 111.52 54.1 111.6 54.13C111.68 54.15 111.76 54.19 111.84 54.23C111.9 54.26 111.95 54.29 112.01 54.33C112.06 54.37 112.12 54.41 112.17 54.45C112.22 54.5 112.27 54.55 112.31 54.6C112.36 54.65 112.4 54.7 112.44 54.75C112.48 54.8 112.51 54.86 112.54 54.91C112.57 54.96 112.6 55.02 112.62 55.08C112.65 55.13 112.67 55.19 112.69 55.25C112.71 55.31 112.73 55.37 112.74 55.43C112.75 55.49 112.76 55.54 112.77 55.6C112.78 55.65 112.79 55.71 112.8 55.77C112.8 55.82 112.81 55.88 112.81 55.94C112.82 55.99 112.82 56.05 112.82 56.11C112.82 56.18 112.82 56.25 112.81 56.32C112.81 56.39 112.8 56.46 112.79 56.53C112.78 56.6 112.77 56.67 112.75 56.73C112.73 56.8 112.72 56.87 112.7 56.94C112.68 57 112.65 57.06 112.63 57.12C112.6 57.18 112.57 57.24 112.54 57.3C112.51 57.35 112.48 57.41 112.44 57.46C112.4 57.51 112.36 57.57 112.32 57.61C112.28 57.66 112.23 57.71 112.18 57.76C112.13 57.8 112.08 57.84 112.03 57.88C111.98 57.92 111.92 57.96 111.86 57.99C111.81 58.02 111.75 58.05 111.69 58.08C111.62 58.11 111.54 58.13 111.47 58.16C111.4 58.18 111.32 58.2 111.25 58.21C111.17 58.22 111.1 58.23 111.02 58.24C110.95 58.25 110.87 58.25 110.79 58.25C110.72 58.25 110.65 58.25 110.57 58.24C110.5 58.24 110.42 58.23 110.35 58.21C110.28 58.2 110.21 58.18 110.14 58.16C110.06 58.14 110 58.11 109.93 58.08C109.87 58.06 109.81 58.03 109.76 58C109.7 57.97 109.65 57.93 109.59 57.9C109.54 57.86 109.49 57.82 109.44 57.78C109.4 57.73 109.35 57.69 109.31 57.64C109.27 57.59 109.23 57.54 109.19 57.49C109.15 57.44 109.12 57.39 109.09 57.33C109.06 57.28 109.03 57.22 109.01 57.16C108.98 57.1 108.96 57.04 108.94 56.98C108.92 56.91 108.9 56.85 108.89 56.78C108.87 56.71 108.86 56.64 108.85 56.57C108.84 56.5 108.83 56.44 108.83 56.37C108.82 56.3 108.82 56.23 108.82 56.16M109.6 56.11C109.6 56.16 109.6 56.21 109.61 56.26C109.61 56.31 109.61 56.36 109.62 56.41C109.63 56.46 109.63 56.51 109.64 56.56C109.65 56.61 109.66 56.66 109.67 56.71C109.68 56.75 109.69 56.79 109.71 56.84C109.72 56.88 109.74 56.92 109.76 56.96C109.77 57.01 109.79 57.05 109.82 57.09C109.84 57.13 109.86 57.17 109.89 57.21C109.91 57.24 109.94 57.28 109.96 57.31C109.99 57.34 110.02 57.37 110.05 57.4C110.09 57.43 110.12 57.46 110.15 57.49C110.19 57.51 110.22 57.54 110.26 57.56C110.3 57.58 110.35 57.6 110.39 57.62C110.43 57.64 110.48 57.65 110.52 57.66C110.57 57.67 110.62 57.68 110.66 57.69C110.71 57.69 110.76 57.69 110.8 57.69C110.84 57.69 110.88 57.69 110.91 57.69C110.95 57.68 110.99 57.68 111.02 57.67C111.06 57.66 111.1 57.66 111.13 57.64C111.17 57.63 111.2 57.62 111.24 57.61C111.27 57.59 111.31 57.58 111.34 57.56C111.38 57.54 111.41 57.52 111.45 57.5C111.48 57.47 111.51 57.45 111.54 57.42C111.57 57.4 111.6 57.37 111.62 57.34C111.65 57.3 111.68 57.26 111.71 57.23C111.74 57.19 111.76 57.15 111.79 57.1C111.81 57.06 111.83 57.02 111.85 56.98C111.87 56.93 111.89 56.89 111.91 56.84C111.93 56.78 111.94 56.72 111.96 56.66C111.97 56.59 111.98 56.53 111.99 56.47C112 56.4 112.01 56.34 112.01 56.27C112.02 56.21 112.02 56.14 112.02 56.08C112.02 55.98 112.02 55.88 112.01 55.78C112 55.68 111.98 55.58 111.96 55.48C111.93 55.39 111.89 55.29 111.85 55.2C111.81 55.11 111.76 55.02 111.7 54.94C111.65 54.88 111.59 54.82 111.53 54.77C111.46 54.72 111.39 54.68 111.32 54.65C111.25 54.62 111.17 54.59 111.09 54.57C111.01 54.56 110.93 54.55 110.85 54.55C110.82 54.56 110.78 54.56 110.75 54.56C110.72 54.56 110.68 54.57 110.65 54.57C110.62 54.58 110.58 54.59 110.55 54.6C110.52 54.6 110.48 54.61 110.45 54.62C110.42 54.64 110.38 54.65 110.34 54.67C110.31 54.68 110.27 54.7 110.24 54.72C110.2 54.74 110.17 54.76 110.14 54.79C110.11 54.81 110.08 54.84 110.05 54.86C110.01 54.9 109.98 54.93 109.95 54.97C109.92 55 109.89 55.04 109.86 55.08C109.83 55.12 109.81 55.16 109.79 55.21C109.76 55.25 109.74 55.29 109.73 55.34C109.7 55.4 109.68 55.46 109.67 55.53C109.65 55.59 109.64 55.65 109.62 55.72C109.61 55.78 109.61 55.85 109.6 55.92C109.6 55.98 109.6 56.05 109.6 56.11" />
			<path id="Path_602" class="shp1" d="M113.79 54.65L113.77 54.12L114.53 54.12L114.53 54.7C114.55 54.66 114.58 54.63 114.6 54.6C114.62 54.56 114.65 54.53 114.67 54.5C114.7 54.47 114.73 54.44 114.76 54.41C114.78 54.38 114.81 54.35 114.85 54.32C114.87 54.3 114.9 54.28 114.92 54.26C114.95 54.24 114.98 54.23 115.01 54.21C115.04 54.19 115.06 54.18 115.09 54.16C115.12 54.15 115.15 54.13 115.18 54.12C115.21 54.11 115.24 54.1 115.26 54.09C115.29 54.08 115.32 54.07 115.35 54.07C115.37 54.06 115.4 54.05 115.43 54.05C115.46 54.04 115.49 54.04 115.52 54.03C115.54 54.03 115.56 54.03 115.59 54.02C115.61 54.02 115.64 54.02 115.66 54.02C115.68 54.02 115.71 54.01 115.73 54.01C115.76 54.01 115.78 54.01 115.8 54.01C115.85 54.01 115.9 54.01 115.94 54.01C115.99 54.02 116.04 54.02 116.09 54.03C116.13 54.03 116.18 54.04 116.22 54.05C116.27 54.06 116.32 54.07 116.36 54.09C116.39 54.1 116.43 54.11 116.46 54.12C116.49 54.14 116.52 54.15 116.56 54.17C116.59 54.18 116.62 54.2 116.65 54.22C116.68 54.24 116.71 54.25 116.74 54.28C116.76 54.29 116.78 54.31 116.8 54.33C116.82 54.35 116.85 54.37 116.87 54.39C116.88 54.41 116.9 54.43 116.92 54.45C116.94 54.47 116.96 54.49 116.97 54.52C116.98 54.54 117 54.56 117.01 54.58C117.02 54.6 117.03 54.62 117.04 54.64C117.05 54.66 117.06 54.68 117.07 54.7C117.09 54.72 117.1 54.74 117.11 54.76C117.14 54.71 117.19 54.64 117.25 54.56C117.27 54.53 117.29 54.51 117.31 54.49C117.33 54.47 117.35 54.44 117.37 54.42C117.39 54.4 117.41 54.38 117.43 54.36C117.46 54.34 117.48 54.32 117.5 54.31C117.53 54.28 117.56 54.26 117.59 54.24C117.63 54.23 117.66 54.21 117.69 54.19C117.72 54.17 117.75 54.16 117.79 54.14C117.82 54.13 117.86 54.11 117.89 54.1C117.94 54.08 117.98 54.07 118.03 54.06C118.07 54.05 118.12 54.04 118.17 54.03C118.22 54.02 118.26 54.02 118.31 54.01C118.36 54.01 118.41 54.01 118.46 54.01C118.5 54.01 118.53 54.01 118.57 54.02C118.61 54.02 118.65 54.02 118.69 54.03C118.73 54.03 118.77 54.04 118.81 54.04C118.85 54.05 118.89 54.06 118.93 54.07C118.97 54.08 119.01 54.09 119.05 54.1C119.1 54.12 119.14 54.13 119.18 54.15C119.22 54.17 119.26 54.19 119.29 54.21C119.33 54.23 119.37 54.25 119.41 54.28C119.45 54.31 119.48 54.34 119.52 54.37C119.55 54.4 119.59 54.44 119.62 54.47C119.65 54.51 119.68 54.55 119.71 54.59C119.73 54.63 119.76 54.67 119.78 54.71C119.81 54.77 119.83 54.83 119.85 54.88C119.87 54.94 119.88 55 119.9 55.06C119.91 55.12 119.92 55.19 119.92 55.25C119.93 55.31 119.93 55.37 119.93 55.43L119.93 58.12L119.17 58.12L119.17 55.54C119.17 55.51 119.17 55.48 119.17 55.45C119.17 55.41 119.17 55.38 119.16 55.35C119.16 55.31 119.15 55.28 119.15 55.25C119.14 55.21 119.14 55.18 119.13 55.15C119.12 55.13 119.12 55.11 119.11 55.09C119.1 55.08 119.1 55.06 119.09 55.04C119.08 55.02 119.07 55 119.06 54.99C119.05 54.97 119.04 54.95 119.03 54.94C119.01 54.91 118.99 54.89 118.97 54.86C118.95 54.84 118.93 54.82 118.9 54.8C118.88 54.78 118.85 54.76 118.83 54.74C118.8 54.72 118.77 54.71 118.74 54.69C118.71 54.67 118.67 54.66 118.63 54.64C118.59 54.63 118.55 54.62 118.51 54.61C118.47 54.6 118.43 54.59 118.39 54.59C118.35 54.58 118.31 54.58 118.26 54.58C118.24 54.58 118.21 54.58 118.18 54.59C118.16 54.59 118.13 54.59 118.1 54.6C118.07 54.6 118.05 54.61 118.02 54.61C117.99 54.62 117.97 54.63 117.94 54.63C117.92 54.64 117.9 54.65 117.88 54.66C117.86 54.67 117.84 54.67 117.82 54.68C117.79 54.69 117.77 54.7 117.75 54.71C117.73 54.72 117.71 54.73 117.69 54.75C117.68 54.76 117.66 54.76 117.65 54.78C117.63 54.79 117.62 54.8 117.6 54.81C117.59 54.82 117.57 54.83 117.56 54.84C117.55 54.86 117.53 54.87 117.52 54.88C117.51 54.89 117.5 54.9 117.49 54.91C117.48 54.92 117.47 54.93 117.46 54.94C117.45 54.95 117.44 54.96 117.44 54.98C117.43 54.99 117.42 55 117.41 55.01C117.4 55.03 117.39 55.04 117.38 55.06C117.37 55.08 117.36 55.09 117.35 55.11C117.34 55.13 117.34 55.15 117.33 55.17C117.32 55.19 117.32 55.21 117.31 55.22C117.31 55.24 117.3 55.26 117.29 55.28C117.29 55.3 117.28 55.32 117.28 55.34C117.28 55.36 117.27 55.39 117.27 55.41C117.27 55.43 117.26 55.45 117.26 55.47C117.26 55.49 117.25 55.51 117.25 55.53C117.25 55.54 117.25 55.56 117.25 55.58C117.25 55.6 117.24 55.62 117.24 55.64C117.24 55.66 117.24 55.68 117.24 55.7C117.24 55.77 117.24 55.83 117.24 55.87L117.24 58.11L116.48 58.11L116.48 55.46C116.48 55.41 116.48 55.35 116.47 55.29C116.46 55.24 116.45 55.18 116.43 55.13C116.41 55.08 116.39 55.03 116.36 54.98C116.33 54.93 116.3 54.88 116.27 54.84C116.22 54.79 116.18 54.75 116.13 54.72C116.07 54.69 116.02 54.66 115.96 54.64C115.91 54.61 115.85 54.6 115.79 54.59C115.72 54.58 115.66 54.58 115.6 54.58C115.57 54.58 115.55 54.59 115.52 54.59C115.49 54.59 115.46 54.59 115.43 54.6C115.4 54.6 115.37 54.61 115.35 54.61C115.32 54.62 115.29 54.63 115.26 54.64C115.24 54.65 115.22 54.65 115.2 54.66C115.18 54.67 115.15 54.68 115.13 54.69C115.11 54.7 115.09 54.71 115.07 54.73C115.05 54.74 115.03 54.75 115.01 54.76C114.99 54.77 114.98 54.78 114.96 54.8C114.95 54.81 114.93 54.82 114.92 54.83C114.9 54.84 114.89 54.85 114.87 54.87C114.86 54.88 114.84 54.89 114.83 54.91C114.82 54.91 114.81 54.92 114.8 54.93C114.79 54.94 114.78 54.95 114.78 54.96C114.77 54.97 114.76 54.98 114.75 54.99C114.74 55 114.73 55.01 114.73 55.02C114.7 55.05 114.68 55.08 114.67 55.12C114.65 55.15 114.64 55.18 114.62 55.22C114.61 55.25 114.6 55.29 114.59 55.32C114.58 55.36 114.58 55.39 114.58 55.43C114.57 55.46 114.57 55.5 114.57 55.53C114.56 55.57 114.56 55.6 114.56 55.63C114.56 55.67 114.55 55.7 114.55 55.74C114.55 55.77 114.55 55.8 114.55 55.84L114.55 58.11L113.79 58.11L113.79 54.65Z" />
			<path id="Rectangle_640" class="shp2" d="M156.22 64.08L158.43 64.08L158.43 66.29L156.22 66.29L156.22 64.08Z" />
			<path id="Path_603" class="shp2" d="M154.37 54.25L153.06 64.12L151.75 54.25L149.69 54.25L151.59 66.29L154.5 66.29L156.42 54.25L154.37 54.25Z" />
			<path id="Path_604" class="shp2" d="M124.99 54.25L123.85 54.25L123.85 55.85L124.99 55.85L124.99 66.29L126.98 66.29L126.98 55.85L128.39 55.85L128.39 54.25L126.98 54.25L126.98 51.8C126.98 51.73 126.98 51.65 126.99 51.58C126.99 51.51 127.01 51.44 127.03 51.37C127.05 51.3 127.08 51.23 127.11 51.17C127.15 51.1 127.19 51.04 127.23 50.98C127.28 50.94 127.34 50.89 127.4 50.86C127.47 50.82 127.53 50.79 127.6 50.77C127.67 50.74 127.74 50.73 127.81 50.72C127.88 50.71 127.96 50.71 128.03 50.71L128.39 50.71L128.39 49.08L127.66 49.08C127.48 49.06 127.29 49.06 127.1 49.08C126.91 49.1 126.72 49.13 126.54 49.18C126.36 49.23 126.18 49.29 126.01 49.37C125.84 49.45 125.67 49.55 125.52 49.65C125.41 49.78 125.32 49.92 125.24 50.06C125.17 50.21 125.11 50.36 125.06 50.52C125.01 50.67 124.99 50.84 124.97 51C124.96 51.16 124.97 51.33 124.99 51.49L124.99 54.25Z" />
			<path id="Rectangle_641" class="shp2" d="M129.01 54.25L131.01 54.25L131.01 66.29L129.01 66.29L129.01 54.25Z" />
			<path id="Path_605" fill-rule="evenodd" class="shp2" d="M140.25 63.53C140.25 64.34 140.55 64.91 141.37 64.91C142.19 64.91 142.49 64.34 142.49 63.53L142.49 62.39L144.42 62.39L144.42 63.36C144.48 63.77 144.44 64.2 144.3 64.6C144.17 65 143.94 65.36 143.64 65.66C143.34 65.96 142.98 66.19 142.58 66.32C142.18 66.46 141.75 66.5 141.33 66.44C140.92 66.48 140.5 66.43 140.1 66.29C139.71 66.15 139.35 65.92 139.06 65.63C138.76 65.33 138.54 64.98 138.4 64.58C138.26 64.19 138.2 63.77 138.24 63.36L138.24 57.25C138.24 55.02 139.23 54.11 141.33 54.11C143.35 54.11 144.42 55.02 144.42 57.24L144.42 60.95L140.25 60.95L140.25 63.53ZM140.25 59.33L142.49 59.33L142.49 56.84C142.49 56.15 142.3 55.46 141.37 55.46C140.43 55.46 140.25 56.16 140.25 56.84L140.25 59.33Z" />
			<path id="Path_606" class="shp2" d="M135.51 59.44C134 58.11 133.87 57.93 133.87 56.95C133.87 56.11 133.95 55.6 134.7 55.6C135.45 55.6 135.55 56.11 135.55 56.96L135.55 58.07L137.48 58.07L137.48 56.26C137.48 54.84 136.38 54.11 134.66 54.11C132.97 54.11 131.86 54.68 131.85 56.96C131.85 57.35 131.85 57.35 131.85 57.2C131.85 57.53 131.89 57.86 131.96 58.18C132.04 58.5 132.16 58.81 132.31 59.11C132.46 59.4 132.66 59.67 132.88 59.92C133.1 60.16 133.35 60.38 133.63 60.56L134.14 61C135.44 62.1 135.58 62.23 135.58 63.54C135.58 64.34 135.53 64.95 134.68 64.95C133.84 64.95 133.78 64.34 133.78 63.96L133.78 62.42L131.76 62.42L131.76 64.01C131.76 65.96 133.03 66.45 134.68 66.45C136.33 66.45 137.6 65.96 137.6 63.45L137.6 63.24C137.6 61.47 137.28 61.01 135.52 59.45" />
			<path id="Path_607" class="shp2" d="M147.1 55.49L147.1 54.25L145.28 54.25L145.28 66.29L147.25 66.29L147.25 57.9C147.23 57.77 147.24 57.64 147.26 57.52C147.28 57.39 147.31 57.27 147.36 57.16C147.41 57.04 147.48 56.93 147.56 56.83C147.63 56.74 147.72 56.65 147.83 56.57C147.92 56.51 148.03 56.46 148.13 56.41C148.24 56.37 148.35 56.33 148.46 56.3C148.57 56.28 148.69 56.26 148.8 56.25C148.92 56.24 149.03 56.23 149.15 56.24L149.15 54.11C148.93 54.08 148.71 54.09 148.49 54.14C148.28 54.19 148.07 54.28 147.89 54.4C147.71 54.52 147.54 54.68 147.41 54.85C147.28 55.03 147.18 55.23 147.12 55.44L147.1 55.49Z" />
		</g>
	</g>
</svg>